<?xml version="1.0" standalone="no"?>
<!DOCTYPE svg PUBLIC "-//W3C//DTD SVG 20010904//EN"
 "http://www.w3.org/TR/2001/REC-SVG-20010904/DTD/svg10.dtd">
<svg version="1.0" xmlns="http://www.w3.org/2000/svg"
 width="632.000000pt" height="164.000000pt" viewBox="0 0 632.000000 164.000000"
 preserveAspectRatio="xMidYMid meet">

<g transform="translate(0.000000,164.000000) scale(0.100000,-0.100000)"
fill="#e9ecef" stroke="none">
<path d="M100 1245 l0 -295 140 0 140 0 0 161 0 162 103 -6 c302 -16 461 -210
427 -520 -12 -103 -43 -178 -100 -240 -79 -87 -209 -137 -357 -137 l-73 0 0
160 0 160 -140 0 -140 0 0 -295 0 -295 203 0 c231 0 343 15 474 62 237 85 374
255 414 509 14 94 6 304 -15 384 -30 113 -89 216 -163 286 -159 149 -335 199
-705 199 l-208 0 0 -295z"/>
<path d="M1250 820 l0 -720 140 0 140 0 0 295 0 295 290 0 290 0 0 129 c0 108
-3 130 -16 135 -9 3 -139 6 -290 6 l-274 0 0 155 0 155 203 2 202 3 3 133 3
132 -346 0 -345 0 0 -720z"/>
<path d="M2150 1090 l0 -450 140 0 140 0 0 450 0 450 -140 0 -140 0 0 -450z"/>
<path d="M3491 1520 c-248 -66 -414 -241 -482 -510 -29 -112 -23 -317 11 -425
99 -312 335 -485 659 -485 137 0 226 20 331 71 162 80 285 237 342 435 32 113
32 315 0 428 -57 198 -181 356 -342 435 -47 23 -116 48 -155 56 -100 21 -273
18 -364 -5z m320 -260 c118 -36 220 -142 263 -270 24 -72 32 -209 17 -283 -29
-138 -123 -261 -239 -315 -76 -34 -202 -42 -288 -17 -120 35 -217 128 -265
254 -26 69 -37 222 -20 302 25 122 106 242 198 296 94 55 224 68 334 33z"/>
<path d="M3644 949 c-104 -30 -131 -165 -49 -238 87 -76 225 -12 225 104 0 93
-88 160 -176 134z"/>
<path d="M5182 1523 c-5 -10 -69 -176 -143 -370 -73 -194 -136 -349 -140 -345
-3 4 -44 112 -90 239 l-84 233 -142 0 c-79 0 -143 -3 -143 -7 0 -5 100 -270
222 -591 194 -506 226 -582 242 -580 16 2 58 104 220 530 174 456 202 524 212
505 6 -12 98 -250 204 -529 208 -549 210 -552 245 -465 34 85 435 1128 435
1133 0 2 -65 4 -144 4 l-144 0 -88 -239 c-49 -132 -92 -237 -95 -233 -4 4 -54
133 -112 287 -58 154 -120 317 -137 363 l-32 82 -139 0 c-122 0 -139 -2 -147
-17z"/>
<path d="M2150 235 l0 -135 400 0 400 0 0 135 0 135 -400 0 -400 0 0 -135z"/>
</g>
</svg>
